Coordinates
version=1
nRows=13
nColumns=63
inDegrees=yes

Units are S.I. units (second, meters, Newtons, ...)
If the header above contains a line with 'inDegrees', this indicates whether rotational values are in degrees (yes) or radians (no).

endheader
time	pelvis_tilt	pelvis_list	pelvis_rotation	pelvis_tx	pelvis_ty	pelvis_tz	hip_flexion_r	hip_adduction_r	hip_rotation_r	knee_angle_r	knee_angle_r_beta	ankle_angle_r	subtalar_angle_r	mtp_angle_r	hip_flexion_l	hip_adduction_l	hip_rotation_l	knee_angle_l	knee_angle_l_beta	ankle_angle_l	subtalar_angle_l	mtp_angle_l	L5_S1_Flex_Ext	L5_S1_Lat_Bending	L5_S1_axial_rotation	L4_L5_Flex_Ext	L4_L5_Lat_Bending	L4_L5_axial_rotation	L3_L4_Flex_Ext	L3_L4_Lat_Bending	L3_L4_axial_rotation	L2_L3_Flex_Ext	L2_L3_Lat_Bending	L2_L3_axial_rotation	L1_L2_Flex_Ext	L1_L2_Lat_Bending	L1_L2_axial_rotation	L1_T12_Flex_Ext	L1_T12_Lat_Bending	L1_T12_axial_rotation	Abs_r3	Abs_r2	Abs_r1	Abs_t1	Abs_t2	neck_flexion	neck_bending	neck_rotation	arm_flex_r	arm_add_r	arm_rot_r	elbow_flex_r	pro_sup_r	wrist_flex_r	wrist_dev_r	arm_flex_l	arm_add_l	arm_rot_l	elbow_flex_l	pro_sup_l	wrist_flex_l	wrist_dev_l
7.450000	4.794794	-7.419391	105.947895	0.249927	0.754971	0.937099	13.818892	2.444708	-1.913779	16.675128	0.291036	20.916934	-11.932756	0.000000	12.805674	-2.811365	2.773203	11.739942	0.204901	29.506645	6.068372	0.000000	0.208685	0.253366	-0.353048	0.387548	0.336977	-0.375114	0.342848	0.616034	-0.375114	0.238506	0.616034	-0.308917	0.193784	0.516664	-0.286852	0.119242	0.392464	-0.264786	1.490613	2.866126	-1.963548	0.000000	0.000000	27.945382	6.705551	13.682683	13.861986	-13.476022	111.535859	25.179290	8.151763	-8.493801	-0.166190	6.855867	-12.210721	60.185440	28.110684	79.090183	-13.748723	-4.945933
7.466667	4.824267	-7.235282	106.034110	0.250554	0.755271	0.936926	13.474590	2.578264	-1.802960	16.374527	0.285789	20.685031	-12.081072	0.000000	12.445629	-2.968441	2.496283	11.334452	0.197823	29.436534	6.782346	0.000000	0.193984	0.269022	-0.399537	0.360248	0.357799	-0.424508	0.318697	0.654100	-0.424508	0.221705	0.654100	-0.349595	0.180134	0.548590	-0.324624	0.110843	0.416715	-0.299653	1.385610	3.043232	-2.222104	0.000000	0.000000	27.929644	7.068165	14.363807	13.196197	-13.748632	107.967798	25.417488	11.008207	-8.522481	-0.010887	6.720737	-12.326486	59.904376	28.347439	79.264118	-13.730684	-4.942188
7.483333	4.831981	-7.058637	106.097462	0.251136	0.755418	0.936995	13.182072	2.678769	-1.689878	16.143807	0.281763	20.547361	-12.201208	0.000000	12.142311	-3.092273	2.232243	11.000322	0.191992	29.417587	7.432456	0.000000	0.177876	0.284424	-0.437825	0.330333	0.378284	-0.465190	0.292232	0.691549	-0.465190	0.203294	0.691549	-0.383097	0.165176	0.579998	-0.355733	0.101638	0.440573	-0.328369	1.270550	3.217463	-2.435054	0.000000	0.000000	27.918246	7.285569	14.862229	12.497690	-14.045264	104.274601	25.632275	13.987429	-8.558232	0.172522	6.528418	-12.449515	59.299538	28.718681	79.674284	-13.617322	-4.825695
7.500000	4.820109	-6.902301	106.144224	0.251622	0.755403	0.937291	12.960538	2.736926	-1.607147	15.997761	0.279214	20.508670	-12.273857	0.000000	11.915114	-3.167216	2.073398	10.749436	0.187613	29.446212	7.899474	0.000000	0.162417	0.299646	-0.464767	0.301624	0.398529	-0.493814	0.266834	0.728559	-0.493814	0.185626	0.728559	-0.406671	0.150820	0.611038	-0.377623	0.092805	0.464152	-0.348575	1.160125	3.389656	-2.584892	0.000000	0.000000	27.910886	7.412904	15.222457	11.669208	-14.393337	99.858591	25.882877	17.840239	-8.579965	0.578000	6.284526	-12.562941	58.407221	29.201780	80.370305	-13.411213	-4.576705
7.516667	4.775970	-6.764483	106.158637	0.252049	0.755267	0.937771	12.806039	2.750121	-1.516047	15.939765	0.278201	20.557286	-12.329506	0.000000	11.756017	-3.190518	1.972107	10.582660	0.184702	29.540706	8.224440	0.000000	0.146900	0.312674	-0.477484	0.272809	0.415857	-0.507327	0.241342	0.760236	-0.507327	0.167892	0.760236	-0.417799	0.136412	0.637605	-0.387956	0.083939	0.484332	-0.358113	1.049294	3.537032	-2.655624	0.000000	0.000000	27.909089	7.441876	15.433768	10.778606	-14.763260	95.110598	26.152176	22.249387	-8.583687	1.096069	6.012844	-12.677812	57.389853	29.781477	81.193504	-13.191887	-4.196875
7.533333	4.704017	-6.658722	106.172147	0.252377	0.755029	0.938388	12.724621	2.709099	-1.470577	15.963084	0.278608	20.684087	-12.337758	0.000000	11.680020	-3.153848	1.978001	10.500572	0.183270	29.683799	8.374532	0.000000	0.133925	0.322681	-0.479758	0.248713	0.429166	-0.509743	0.220026	0.784568	-0.509743	0.153063	0.784568	-0.419788	0.124363	0.658012	-0.389803	0.076525	0.499834	-0.359818	0.956615	3.650237	-2.668269	0.000000	0.000000	27.912188	7.354007	15.440873	9.840849	-15.161792	90.116268	26.454118	27.065952	-8.604437	1.673760	5.680391	-12.785442	56.110986	30.466668	82.183247	-12.905779	-3.649209
7.550000	4.608803	-6.582184	106.180784	0.252620	0.754732	0.939097	12.713856	2.626274	-1.437744	16.073200	0.280530	20.861099	-12.333819	0.000000	11.677699	-3.063580	2.123352	10.497657	0.183219	29.868379	8.297721	0.000000	0.122921	0.329822	-0.468557	0.228277	0.438663	-0.497842	0.201947	0.801930	-0.497842	0.140487	0.801930	-0.409988	0.114145	0.672573	-0.380703	0.070237	0.510894	-0.351418	0.878014	3.731014	-2.605976	0.000000	0.000000	27.918304	7.100171	15.200674	8.891338	-15.543199	85.159662	26.786879	32.216044	-8.667463	2.256529	5.329254	-12.875781	54.723319	31.200923	83.276564	-12.615161	-2.996214
7.566667	4.480853	-6.517906	106.171465	0.252807	0.754454	0.939825	12.742128	2.497233	-1.440319	16.255743	0.283716	21.084163	-12.251213	0.000000	11.703048	-2.933271	2.267763	10.533933	0.183852	30.076576	8.158374	0.000000	0.109825	0.333143	-0.448389	0.203956	0.443080	-0.476413	0.180432	0.810004	-0.476413	0.125519	0.810004	-0.392340	0.101984	0.679345	-0.364316	0.062754	0.516039	-0.336291	0.784470	3.768581	-2.493803	0.000000	0.000000	27.924937	6.750278	14.805034	8.049691	-15.887370	80.734658	27.116473	37.346354	-8.768500	2.750475	4.968468	-12.963850	53.291536	31.968657	84.227957	-12.325137	-2.298794
7.583333	4.339975	-6.492779	106.193018	0.252877	0.754173	0.940552	12.834231	2.328819	-1.487297	16.503418	0.288039	21.319859	-12.145864	0.000000	11.795156	-2.752116	2.569796	10.626019	0.185459	30.267188	7.799340	0.000000	0.099560	0.333235	-0.420809	0.184894	0.443203	-0.447110	0.163568	0.810228	-0.447110	0.113788	0.810228	-0.368208	0.092452	0.679533	-0.341908	0.056889	0.516181	-0.315607	0.711150	3.769622	-2.340416	0.000000	0.000000	27.927656	6.234993	14.150429	7.258250	-16.201100	76.633917	27.485238	42.409309	-8.925411	3.190506	4.615644	-13.029751	51.807866	32.733999	85.147422	-11.984444	-1.528648
7.600000	4.199931	-6.498312	106.218298	0.252865	0.753918	0.941194	12.972892	2.151676	-1.513889	16.793860	0.293108	21.551624	-12.055767	0.000000	11.926322	-2.545448	2.979185	10.747699	0.187583	30.435647	7.226117	0.000000	0.091388	0.331632	-0.382210	0.169717	0.441071	-0.406099	0.150142	0.806331	-0.406099	0.104448	0.806331	-0.334434	0.084863	0.676264	-0.310546	0.052219	0.513698	-0.286658	0.652777	3.751490	-2.125740	0.000000	0.000000	27.921271	5.543971	13.233062	6.521847	-16.463709	72.931160	27.889221	47.291565	-9.137199	3.548092	4.300162	-13.062771	50.388705	33.436921	85.967518	-11.615614	-0.738452
7.616667	4.065176	-6.516148	106.240164	0.252788	0.753725	0.941706	13.133306	1.975349	-1.534095	17.116616	0.298741	21.783430	-11.962680	0.000000	12.077019	-2.342113	3.330649	10.910649	0.190427	30.611476	6.670954	0.000000	0.082568	0.329655	-0.336198	0.153336	0.438441	-0.357210	0.135650	0.801523	-0.357210	0.094367	0.801523	-0.294173	0.076672	0.672232	-0.273161	0.047179	0.510636	-0.252148	0.589772	3.729123	-1.869831	0.000000	0.000000	27.906833	4.766101	12.195649	5.847320	-16.657250	69.665559	28.301317	51.929805	-9.379247	3.814346	4.035423	-13.046990	49.086824	34.024411	86.608543	-11.212413	0.038089
7.633333	3.961214	-6.541219	106.291516	0.252595	0.753588	0.942075	13.301260	1.816346	-1.600247	17.439848	0.304383	22.016013	-11.843605	0.000000	12.249362	-2.158053	3.692803	11.111914	0.193939	30.788742	6.095022	0.000000	0.075090	0.330106	-0.285586	0.139449	0.439041	-0.303435	0.123365	0.802621	-0.303435	0.085820	0.802621	-0.249888	0.069729	0.673153	-0.232039	0.042906	0.511335	-0.214190	0.536360	3.734229	-1.588345	0.000000	0.000000	27.878872	3.915423	11.046105	5.153674	-16.837097	66.436617	28.731910	56.295958	-9.646202	4.063224	3.898084	-12.979963	48.272711	34.431977	86.807997	-10.882257	0.717501
7.650000	3.882894	-6.557183	106.356601	0.252337	0.753533	0.942278	13.453748	1.680395	-1.702650	17.748580	0.309771	22.241033	-11.718651	0.000000	12.412693	-1.995095	4.084726	11.330836	0.197760	30.955664	5.459328	0.000000	0.067269	0.332196	-0.236247	0.124925	0.441821	-0.251013	0.110516	0.807702	-0.251013	0.076881	0.807702	-0.206716	0.062466	0.677415	-0.191951	0.038437	0.514572	-0.177185	0.480494	3.757870	-1.313936	0.000000	0.000000	27.838411	3.013257	9.806735	4.511452	-16.937823	63.674449	29.109140	59.903071	-9.862241	4.197697	3.838619	-12.865361	47.747930	34.662770	86.757570	-10.580523	1.311980
